<svg xmlns="http://www.w3.org/2000/svg" xmlns:svg="http://www.w3.org/2000/svg" id="svg2" width="100" height="100" version="1.1"><metadata id="metadata7"/><g id="layer1" transform="translate(0,-952.36218)"><path style="color:#000;fill:#0571b0;fill-opacity:1;fill-rule:nonzero;stroke:none;marker:none;visibility:visible;display:inline;overflow:visible;enable-background:accumulate" id="path2985-0" d="m 108.33886,50.376255 c 0,25.035397 -22.160775,45.330597 -49.497475,45.330597 -27.336701,0 -49.4974748,-20.2952 -49.4974748,-45.330597 0,-25.035397 22.1607738,-45.3305969 49.4974748,-45.3305969 27.3367,0 49.497475,20.2951999 49.497475,45.3305969 z" transform="matrix(1.0101525,0,0,1.1030078,-9.4387747,946.79678)"/><path style="fill:#ca0020;fill-opacity:1;stroke:none" id="path2985" d="m 108.33886,50.376255 c 0,25.035397 -22.160775,45.330597 -49.497475,45.330597 -27.336701,0 -49.4974748,-20.2952 -49.4974748,-45.330597 0,-25.035397 22.1607738,-45.3305969 49.4974748,-45.3305969 27.3367,0 49.497475,20.2951999 49.497475,45.3305969 z" transform="matrix(0.60609153,0,0,0.66180465,14.336733,969.02294)"/></g></svg>